<?xml version="1.0" standalone="no"?>
<!DOCTYPE svg PUBLIC "-//W3C//DTD SVG 20010904//EN"
 "http://www.w3.org/TR/2001/REC-SVG-20010904/DTD/svg10.dtd">
<svg version="1.0" xmlns="http://www.w3.org/2000/svg"
 width="236.000000pt" height="236.000000pt" viewBox="0 0 236.000000 236.000000"
 preserveAspectRatio="xMidYMid meet">

<g transform="translate(0.000000,236.000000) scale(0.100000,-0.100000)"
fill="#000000" stroke="none">
<path d="M975 2213 c39 -241 88 -452 108 -465 20 -13 27 -9 27 15 0 24 -83
392 -101 445 -13 40 -40 44 -34 5z"/>
<path d="M1321 2223 c-8 -17 -82 -345 -96 -425 -5 -33 -3 -38 14 -38 25 0 32
22 70 215 38 189 47 265 33 265 -6 0 -15 -8 -21 -17z"/>
<path d="M1444 1991 c-91 -231 -103 -271 -81 -271 8 0 19 6 25 13 24 28 162
405 162 441 0 8 -6 16 -12 19 -9 3 -40 -64 -94 -202z"/>
<path d="M785 2178 c-3 -8 22 -95 56 -194 58 -171 110 -284 130 -284 25 0 -4
89 -136 425 -24 60 -41 78 -50 53z"/>
<path d="M600 2069 c0 -36 200 -386 227 -396 41 -16 26 25 -78 202 -61 104
-115 195 -121 202 -16 19 -28 16 -28 -8z"/>
<path d="M1678 2038 c-92 -144 -208 -346 -208 -362 0 -38 36 -8 87 74 72 116
171 295 175 316 7 37 -22 22 -54 -28z"/>
<path d="M435 1950 c-8 -13 -5 -18 120 -172 144 -179 205 -233 205 -183 0 16
-297 365 -310 365 -5 0 -12 -5 -15 -10z"/>
<path d="M1834 1908 c-76 -80 -196 -217 -237 -272 -33 -43 -39 -66 -19 -66 10
0 72 60 119 115 164 195 203 245 203 259 0 26 -13 19 -66 -36z"/>
<path d="M310 1780 c0 -12 13 -24 178 -168 146 -128 157 -136 172 -127 18 11
-7 41 -117 137 -172 150 -233 191 -233 158z"/>
<path d="M1890 1703 c-174 -135 -254 -212 -237 -230 10 -9 52 21 163 113 179
150 211 181 198 194 -8 8 -41 -12 -124 -77z"/>
<path d="M979 1617 c-133 -48 -238 -147 -296 -277 -52 -118 -65 -230 -37 -335
22 -87 57 -140 148 -228 l80 -79 7 -65 c4 -42 14 -75 28 -93 l21 -29 -23 -3
c-30 -4 -34 -40 -8 -83 20 -35 20 -35 1 -35 -16 0 -20 -7 -20 -33 0 -32 24
-67 46 -67 5 0 15 -9 22 -20 7 -11 18 -20 26 -20 8 0 17 -11 20 -25 4 -15 16
-27 31 -31 14 -3 25 -12 25 -19 0 -24 50 -73 80 -80 44 -10 97 19 112 61 8 22
19 34 31 34 11 0 22 11 28 30 6 17 16 30 22 30 6 0 20 9 32 20 11 10 30 28 43
40 27 25 29 64 2 83 l-20 14 20 18 c35 32 26 93 -13 86 -4 -1 3 18 17 42 16
26 26 60 26 83 1 52 14 73 80 127 67 54 102 99 138 175 25 53 27 67 27 182 -1
118 -3 129 -33 200 -56 132 -157 230 -294 287 -53 22 -82 27 -183 30 -107 3
-127 1 -186 -20z m255 -77 c211 -34 374 -250 352 -464 -11 -109 -52 -173 -189
-292 -40 -34 -47 -46 -47 -76 0 -19 -3 -50 -6 -67 l-6 -31 -183 0 -182 0 -7
62 c-9 79 -14 87 -84 143 -163 132 -205 323 -111 507 33 64 120 145 193 179
95 45 171 56 270 39z"/>
<path d="M216 1601 c-8 -12 332 -221 360 -221 65 0 8 45 -204 160 -128 70
-146 77 -156 61z"/>
<path d="M1990 1552 c-119 -66 -237 -135 -262 -155 -25 -20 -22 -39 5 -35 32
4 397 221 397 236 0 23 -35 11 -140 -46z"/>
<path d="M160 1405 c0 -19 20 -29 167 -81 148 -52 201 -66 209 -53 12 20 -21
39 -124 73 -183 60 -252 77 -252 61z"/>
<path d="M1970 1356 c-172 -58 -203 -72 -197 -89 7 -20 55 -9 235 55 109 38
172 66 172 74 0 24 -49 15 -210 -40z"/>
<path d="M1950 1193 c-162 -25 -160 -24 -160 -44 0 -24 24 -24 139 -4 108 19
121 23 121 41 0 14 -39 17 -100 7z"/>
<path d="M372 1174 c3 -16 16 -21 76 -28 52 -6 76 -6 85 3 20 20 -5 31 -87 38
-73 6 -78 5 -74 -13z"/>
</g>
</svg>
